<svg width="1192" height="318" viewBox="0 0 1192 318" fill="none" xmlns="http://www.w3.org/2000/svg">
<path fill-rule="evenodd" clip-rule="evenodd" d="M24 0C10.7452 0 0 10.7452 0 24V293.139C0 306.394 10.7451 317.139 24 317.139H654.757C672.982 317.139 687.757 302.364 687.757 284.139V186.077C687.757 156.806 711.486 133.077 740.757 133.077H996.735C1026.01 133.077 1049.73 156.806 1049.73 186.077V284.139C1049.73 302.364 1064.51 317.139 1082.73 317.139H1168C1181.26 317.139 1192 306.394 1192 293.139V24C1192 10.7452 1181.26 0 1168 0H24Z" fill="#D9D9D9"/>
</svg>
